<svg width="19" height="19" viewBox="0 0 19 19" fill="none" xmlns="http://www.w3.org/2000/svg">
<path d="M9.28 18.56C4.16089 18.56 0 14.3991 0 9.28C0 4.16089 4.16089 0 9.28 0C14.3991 0 18.56 4.16089 18.56 9.28C18.56 14.3991 14.3991 18.56 9.28 18.56ZM9.28 1.29488C4.87739 1.29488 1.29488 4.87739 1.29488 9.28C1.29488 13.6826 4.87739 17.2651 9.28 17.2651C13.6826 17.2651 17.2651 13.6826 17.2651 9.28C17.2651 4.87739 13.6826 1.29488 9.28 1.29488Z" fill="#006BCB"/>
<path d="M8.05375 12.3706C7.8811 12.3706 7.71708 12.3015 7.59622 12.1806L5.15317 9.73762C4.90282 9.48728 4.90282 9.07292 5.15317 8.82257C5.40351 8.57223 5.81787 8.57223 6.06822 8.82257L8.05375 10.8081L12.4909 6.37092C12.7412 6.12058 13.1556 6.12058 13.4059 6.37092C13.6563 6.62127 13.6563 7.03563 13.4059 7.28598L8.51127 12.1806C8.39042 12.3015 8.2264 12.3706 8.05375 12.3706Z" fill="#006BCB"/>
</svg>
