<svg width="12" height="11" viewBox="0 0 12 11" fill="none" xmlns="http://www.w3.org/2000/svg">
<path d="M6.50352 0.794299L7.47941 2.74608C7.61249 3.01779 7.96736 3.27839 8.26678 3.32829L10.0356 3.62217C11.1667 3.81069 11.4329 4.63132 10.6178 5.44087L9.24267 6.81599C9.00979 7.04887 8.88226 7.49801 8.95434 7.81961L9.34803 9.52187C9.65854 10.8693 8.94325 11.3905 7.75111 10.6863L6.0932 9.70485C5.79378 9.52742 5.30029 9.52742 4.99533 9.70485L3.3374 10.6863C2.15081 11.3905 1.42998 10.8637 1.74049 9.52187L2.13417 7.81961C2.20625 7.49801 2.07872 7.04887 1.84584 6.81599L0.47072 5.44087C-0.338827 4.63132 -0.0782197 3.81069 1.05293 3.62217L2.82173 3.32829C3.11561 3.27839 3.47048 3.01779 3.60356 2.74608L4.57946 0.794299C5.11177 -0.264766 5.97676 -0.264766 6.50352 0.794299Z" fill="#5D78CE"/>
</svg>
