<svg width="51" height="60" viewBox="0 0 51 60" fill="none" xmlns="http://www.w3.org/2000/svg">
<path d="M0 44.3711V15.3314L9.96884 9.5524V38.5921L0 44.3711Z" fill="#DDF3FF"/>
<path d="M15.4589 53.1841L40.8867 38.4476L51 44.3711L25.4278 59.1077L15.4589 53.1841Z" fill="#DDF3FF"/>
<path d="M14.5921 17.932V6.6629L25.4278 0.450439V11.864L14.5921 17.932Z" fill="#DDF3FF"/>
<path d="M14.5921 35.847V23.2776L25.4278 17.0652V29.4901L14.5921 35.847Z" fill="#DDF3FF"/>
<path d="M20.6601 44.8046L9.96884 38.5921L0 44.3711L10.8357 50.5836L20.6601 44.8046Z" fill="#DDF3FF"/>
<path d="M25.4278 17.0652L36.4079 23.4221V35.9915L25.4278 29.4901V17.0652Z" fill="#DDF3FF"/>
<path d="M40.8867 26.0227L51 31.8017V44.3711L40.8867 38.4476V26.0227Z" fill="#DDF3FF"/>
<path d="M14.5921 35.847L25.4278 29.4901L36.4079 35.9915L25.5722 42.204L14.5921 35.847Z" fill="#DDF3FF"/>
<path d="M25.4278 11.864V0.450439L50.8555 15.187V26.6006L25.4278 11.864Z" fill="#DDF3FF"/>
</svg>
